<?xml version="1.0" encoding="utf-8"?>
<!-- Generator: Adobe Illustrator 13.0.2, SVG Export Plug-In . SVG Version: 6.00 Build 14948)  -->
<!DOCTYPE svg PUBLIC "-//W3C//DTD SVG 1.1//EN" "http://www.w3.org/Graphics/SVG/1.1/DTD/svg11.dtd">
<svg version="1.1" id="Layer_1" xmlns="http://www.w3.org/2000/svg" xmlns:xlink="http://www.w3.org/1999/xlink" x="0px" y="0px"
	 width="56.221px" height="79.942px" viewBox="0 0 56.221 79.942" enable-background="new 0 0 56.221 79.942" xml:space="preserve">
<path fill="#010101" d="M0.096,28.445c0.128-2.986,0.297-5.162,0.515-6.53c0.25-1.368,0.613-2.681,1.078-3.942
	c0.468-1.257,1.044-2.5,1.728-3.723H3.36c1.87-3.488,4.894-6.727,9.067-9.718C16.639,1.512,21.874,0,28.136,0
	c6.188,0,11.39,1.512,15.601,4.532c4.243,3.061,7.306,6.299,9.176,9.718c1.331,2.449,2.231,5,2.702,7.665
	c0.25,1.37,0.438,3.546,0.569,6.53c0.125,2.988-0.065,26.846-0.569,29.688c-0.25,1.402-0.606,2.734-1.054,3.994
	c-0.449,1.262-0.979,2.467-1.593,3.617c-1.907,3.457-4.983,6.693-9.229,9.719c-4.245,2.988-9.446,4.479-15.6,4.479
	c-6.228,0-11.464-1.492-15.709-4.479c-4.174-2.951-7.197-6.193-9.067-9.719h0.054c-0.686-1.225-1.26-2.459-1.728-3.697
	c-0.468-1.242-0.828-2.545-1.078-3.914c-0.218-1.367-0.387-3.555-0.515-6.559C-0.031,48.573-0.031,31.432,0.096,28.445z
	 M13.075,49.688c0.106,2.535,0.306,4.42,0.593,5.643c0.287,1.115,0.692,2.223,1.216,3.318c0.521,1.098,1.106,2.061,1.755,2.891
	c1.15,1.512,2.681,2.801,4.585,3.857c1.908,1.066,4.211,1.592,6.91,1.592c2.662,0,4.949-0.525,6.854-1.592
	c1.907-1.059,3.419-2.344,4.532-3.857c1.512-1.836,2.503-3.906,2.971-6.209c0.574-2.303,0.789-22.483,0.646-25.02
	c-0.144-2.534-0.361-4.4-0.646-5.585c-0.253-1.151-0.63-2.276-1.137-3.376c-0.505-1.097-1.098-2.076-1.78-2.941
	c-0.539-0.683-1.194-1.35-1.968-1.998c-0.775-0.648-1.648-1.213-2.618-1.699c-0.973-0.486-2.035-0.882-3.188-1.19
	c-1.153-0.306-2.375-0.458-3.667-0.458c-2.699,0-5.005,0.54-6.91,1.618c-1.907,1.081-3.435,2.322-4.585,3.725
	c-0.684,0.863-1.28,1.845-1.783,2.942c-0.504,1.098-0.9,2.225-1.188,3.375c-0.289,1.225-0.486,3.113-0.593,5.667
	C12.969,32.945,12.969,47.149,13.075,49.688z"/>
</svg>
