<svg xmlns="http://www.w3.org/2000/svg" viewBox="0 0 1031.814 56.22" enable-background="0 0 1031.814 56.22">
<path fill="#010101" d="M28.448,56.125c-2.988-0.128-5.162-0.297-6.53-0.515c-1.368-0.25-2.683-0.613-3.942-1.078
	c-1.26-0.466-2.5-1.04-3.725-1.725v0.053c-3.488-1.87-6.727-4.894-9.715-9.067C1.512,39.582,0,34.346,0,28.085
	c0-6.188,1.512-11.39,4.535-15.601c3.058-4.243,6.299-7.306,9.715-9.176c2.449-1.331,5.005-2.231,7.667-2.702
	c1.366-0.25,3.542-0.438,6.53-0.569c2.989-0.125,26.846,0.065,29.691,0.569c1.4,0.25,2.736,0.606,3.993,1.054
	c1.259,0.449,2.465,0.979,3.616,1.593c3.456,1.907,6.695,4.983,9.716,9.229c2.986,4.245,4.479,9.446,4.479,15.6
	c0,6.227-1.493,11.463-4.479,15.708c-2.952,4.174-6.19,7.197-9.716,9.067v-0.054c-1.225,0.686-2.458,1.26-3.699,1.728
	s-2.544,0.828-3.91,1.078c-1.371,0.218-3.556,0.387-6.561,0.515C48.576,56.251,31.434,56.251,28.448,56.125z M49.689,43.145
	c2.537-0.106,4.419-0.306,5.641-0.593c1.116-0.287,2.225-0.692,3.322-1.216c1.098-0.521,2.061-1.106,2.889-1.755
	c1.512-1.15,2.796-2.681,3.859-4.585c1.062-1.905,1.593-4.211,1.593-6.91c0-2.662-0.53-4.949-1.593-6.854s-2.347-3.419-3.859-4.532
	c-1.836-1.512-3.905-2.503-6.211-2.971c-2.301-0.574-22.482-0.789-25.019-0.646s-4.398,0.361-5.586,0.646
	c-1.15,0.253-2.275,0.63-3.375,1.137c-1.095,0.505-2.077,1.098-2.942,1.78c-0.685,0.539-1.35,1.194-1.998,1.968
	c-0.648,0.775-1.215,1.648-1.702,2.618c-0.486,0.973-0.879,2.035-1.188,3.188c-0.306,1.153-0.458,2.375-0.458,3.667
	c0,2.699,0.542,5.004,1.621,6.91c1.079,1.907,2.319,3.435,3.725,4.585c0.863,0.684,1.845,1.28,2.942,1.783
	c1.1,0.504,2.222,0.9,3.375,1.188c1.225,0.289,3.113,0.486,5.669,0.593C32.946,43.251,47.15,43.251,49.689,43.145z"/>
<path fill="#010101" d="M404.313,56.125c-2.986-0.128-5.162-0.297-6.53-0.515c-1.368-0.25-2.681-0.613-3.942-1.078
	c-1.257-0.468-2.5-1.044-3.723-1.728v0.056c-3.488-1.87-6.727-4.894-9.718-9.067c-3.021-4.211-4.532-9.446-4.532-15.708
	c0-6.188,1.512-11.39,4.532-15.601c3.061-4.243,6.299-7.306,9.718-9.176c2.449-1.331,5-2.231,7.665-2.702
	c1.37-0.25,3.546-0.438,6.53-0.569c2.988-0.125,26.846,0.065,29.688,0.569c1.402,0.25,2.733,0.606,3.993,1.054
	c1.262,0.449,2.468,0.979,3.618,1.593c3.456,1.907,6.692,4.983,9.718,9.229c2.988,4.245,4.479,9.446,4.479,15.6
	c0,6.227-1.493,11.463-4.479,15.708c-2.951,4.174-6.192,7.197-9.718,9.067v-0.054c-1.225,0.686-2.459,1.26-3.697,1.728
	c-1.243,0.468-2.546,0.828-3.914,1.078c-1.368,0.218-3.556,0.387-6.559,0.515C424.441,56.251,407.3,56.251,404.313,56.125z
	 M425.557,43.145c2.535-0.106,4.42-0.306,5.642-0.593c1.116-0.287,2.223-0.692,3.319-1.216c1.098-0.521,2.061-1.106,2.89-1.755
	c1.512-1.15,2.801-2.681,3.858-4.585c1.065-1.908,1.591-4.211,1.591-6.91c0-2.662-0.525-4.949-1.591-6.854
	c-1.06-1.907-2.345-3.419-3.858-4.532c-1.836-1.512-3.905-2.503-6.209-2.971c-2.303-0.574-22.482-0.789-25.02-0.646
	c-2.534,0.144-4.4,0.361-5.585,0.646c-1.151,0.253-2.276,0.63-3.376,1.137c-1.097,0.505-2.076,1.098-2.941,1.78
	c-0.683,0.539-1.35,1.194-1.998,1.968c-0.648,0.775-1.213,1.648-1.699,2.618c-0.486,0.973-0.882,2.035-1.19,3.188
	c-0.306,1.153-0.458,2.375-0.458,3.667c0,2.699,0.54,5.004,1.618,6.91c1.081,1.907,2.322,3.435,3.725,4.585
	c0.863,0.684,1.845,1.28,2.942,1.783c1.098,0.504,2.225,0.9,3.375,1.188c1.225,0.289,3.113,0.486,5.667,0.593
	C408.813,43.251,423.018,43.251,425.557,43.145z"/>
<path fill="#010101" d="M980.32,56.125c-2.99-0.128-5.162-0.297-6.533-0.515c-1.365-0.25-2.682-0.613-3.939-1.078
	c-1.258-0.468-2.5-1.044-3.725-1.728v0.056c-3.492-1.87-6.729-4.894-9.717-9.067c-3.023-4.211-4.531-9.446-4.531-15.708
	c0-6.188,1.512-11.39,4.531-15.601c3.061-4.243,6.299-7.306,9.717-9.176c2.445-1.331,5-2.231,7.662-2.702
	c1.373-0.25,3.545-0.438,6.531-0.569c2.988-0.125,26.846,0.065,29.689,0.569c1.402,0.25,2.734,0.606,3.996,1.054
	c1.258,0.449,2.465,0.979,3.615,1.593c3.453,1.907,6.691,4.983,9.715,9.229c2.986,4.245,4.482,9.446,4.482,15.6
	c0,6.227-1.496,11.463-4.482,15.708c-2.949,4.174-6.189,7.197-9.715,9.067v-0.054c-1.225,0.686-2.459,1.26-3.697,1.728
	c-1.242,0.468-2.547,0.828-3.914,1.078c-1.369,0.218-3.557,0.387-6.559,0.515C1000.445,56.251,983.308,56.251,980.32,56.125z
	 M1001.56,43.145c2.535-0.106,4.42-0.306,5.639-0.593c1.119-0.287,2.225-0.692,3.322-1.216c1.098-0.521,2.061-1.106,2.891-1.755
	c1.512-1.15,2.799-2.681,3.857-4.585c1.062-1.908,1.592-4.211,1.592-6.91c0-2.662-0.529-4.949-1.592-6.854
	c-1.061-1.907-2.342-3.419-3.857-4.532c-1.838-1.512-3.904-2.503-6.209-2.971c-2.303-0.574-22.48-0.789-25.018-0.646
	c-2.535,0.144-4.4,0.361-5.586,0.646c-1.15,0.253-2.273,0.63-3.375,1.137c-1.096,0.505-2.078,1.098-2.943,1.78
	c-0.682,0.539-1.35,1.194-1.996,1.968c-0.645,0.775-1.211,1.648-1.697,2.618c-0.488,0.973-0.883,2.035-1.189,3.188
	c-0.305,1.153-0.459,2.375-0.459,3.667c0,2.699,0.539,5.004,1.621,6.91c1.08,1.907,2.324,3.435,3.725,4.585
	c0.865,0.684,1.844,1.28,2.941,1.783c1.1,0.504,2.225,0.9,3.375,1.188c1.225,0.289,3.113,0.486,5.668,0.593
	C984.816,43.251,999.021,43.251,1001.56,43.145z"/>
</svg>
