<svg xmlns="http://www.w3.org/2000/svg" viewBox="0.206 3.053 30 445.729" enable-background="new 0.206 3.053 30 445.729">
<path id="lineO1" d="M3,15.342c0.055-1.291,0.128-2.23,0.222-2.821c0.108-0.591,0.265-1.159,0.466-1.703c0.201-0.544,0.449-1.08,0.745-1.609
	H4.41c0.808-1.507,2.114-2.906,3.917-4.197c1.819-1.306,4.081-1.959,6.786-1.959c2.673,0,4.92,0.653,6.739,1.959
	c1.833,1.321,3.156,2.721,3.964,4.197c0.575,1.058,0.964,2.162,1.167,3.312c0.108,0.59,0.189,1.53,0.246,2.821
	c0.054,1.291-0.028,11.597-0.246,12.826c-0.108,0.605-0.262,1.182-0.455,1.725c-0.194,0.544-0.423,1.065-0.688,1.562
	c-0.824,1.493-2.153,2.892-3.987,4.197c-1.834,1.29-4.081,1.935-6.739,1.935c-2.69,0-4.952-0.645-6.786-1.935
	c-1.803-1.275-3.109-2.674-3.917-4.197h0.023c-0.296-0.529-0.544-1.062-0.746-1.598c-0.202-0.536-0.358-1.099-0.466-1.689
	C3.128,27.576,3.055,26.632,3,25.334C2.945,24.037,2.945,16.632,3,15.342z M8.607,24.518c0.046,1.096,0.132,1.909,0.256,2.437
	c0.124,0.482,0.299,0.961,0.525,1.435c0.225,0.474,0.478,0.89,0.758,1.248c0.497,0.653,1.158,1.208,1.981,1.667
	s1.819,0.688,2.985,0.688c1.15,0,2.138-0.229,2.961-0.688s1.477-1.014,1.958-1.667c0.653-0.793,1.081-1.687,1.283-2.683
	c0.248-0.994,0.341-9.712,0.279-10.808c-0.062-1.096-0.156-1.9-0.279-2.413c-0.109-0.497-0.272-0.983-0.491-1.458
	c-0.218-0.473-0.474-0.897-0.769-1.271c-0.233-0.296-0.516-0.583-0.85-0.863c-0.335-0.28-0.712-0.525-1.131-0.735
	c-0.42-0.21-0.879-0.38-1.377-0.513c-0.498-0.132-1.026-0.198-1.584-0.198c-1.166,0-2.162,0.234-2.985,0.7
	c-0.824,0.466-1.484,1.002-1.981,1.609c-0.295,0.373-0.553,0.797-0.77,1.271c-0.218,0.475-0.389,0.96-0.513,1.458
	c-0.125,0.529-0.21,1.345-0.256,2.449C8.561,17.285,8.561,23.421,8.607,24.518z"/>
<path id="lineK2" d="M3.84,78.034c-0.172,0-0.257-0.092-0.257-0.279V44.34c0-0.186,0.085-0.28,0.257-0.28h5.083c0.187,0,0.28,0.094,0.28,0.28
	v16.603c2.223-2.813,4.446-5.608,6.669-8.382c2.223-2.775,4.454-5.57,6.692-8.383c0.078-0.078,0.147-0.117,0.21-0.117h6.017
	c0.124,0,0.21,0.056,0.257,0.163c0.046,0.108,0.031,0.21-0.047,0.304L18.413,57.561c1.974,3.374,3.928,6.717,5.864,10.027
	c1.935,3.311,3.898,6.653,5.889,10.027c0.046,0.108,0.05,0.206,0.012,0.291c-0.04,0.086-0.122,0.128-0.246,0.128h-6.016
	c-0.093,0-0.172-0.046-0.233-0.14l-8.954-15.996c-0.964,0.995-1.889,1.958-2.775,2.892c-0.886,0.932-1.803,1.897-2.751,2.892v10.074
	c0,0.187-0.094,0.279-0.28,0.279H3.84z"/>
<path id="lineA3" d="M0.48,118.505c-0.108,0-0.187-0.039-0.232-0.117c-0.046-0.078-0.055-0.163-0.024-0.256l12.219-33.438
	c0.031-0.125,0.108-0.187,0.233-0.187h4.174c0.046,0,0.097,0.02,0.151,0.058c0.055,0.04,0.09,0.082,0.104,0.128l12.196,33.438
	c0.03,0.094,0.022,0.178-0.024,0.256c-0.047,0.078-0.117,0.117-0.21,0.117h-5.339c-0.125,0-0.202-0.061-0.233-0.187l-2.518-7.368
	H8.666c-0.436,1.258-0.868,2.491-1.294,3.696c-0.428,1.205-0.859,2.43-1.294,3.672c-0.016,0.048-0.05,0.09-0.104,0.128
	c-0.054,0.04-0.104,0.06-0.151,0.06H0.48V118.505z M19.299,105.936l-4.478-13.292l-4.478,13.292H19.299z"/>
<path id="lineN4" d="M2.556,158.951c-0.187,0-0.28-0.094-0.28-0.279v-33.416c0-0.186,0.092-0.279,0.28-0.279h4.803
	c0.094,0,0.17,0.047,0.233,0.14l14.69,23.131v-22.992c0-0.186,0.093-0.279,0.28-0.279h5.083c0.186,0,0.28,0.093,0.28,0.279v33.416
	c0,0.186-0.095,0.279-0.28,0.279h-4.78c-0.094,0-0.172-0.047-0.233-0.14L7.896,135.679v22.992c0,0.186-0.085,0.279-0.256,0.279
	H2.556z"/>
<path id="lineO5" d="M3,177.711c0.055-1.29,0.128-2.23,0.222-2.821c0.108-0.591,0.265-1.158,0.466-1.703c0.202-0.543,0.451-1.08,0.746-1.608
	H4.41c0.808-1.507,2.114-2.906,3.917-4.198c1.819-1.305,4.081-1.958,6.786-1.958c2.673,0,4.92,0.653,6.739,1.958
	c1.833,1.322,3.156,2.721,3.964,4.198c0.575,1.058,0.964,2.16,1.167,3.311c0.108,0.592,0.189,1.532,0.246,2.821
	c0.054,1.291-0.028,11.597-0.246,12.825c-0.108,0.606-0.262,1.181-0.455,1.725c-0.194,0.545-0.423,1.066-0.688,1.563
	c-0.824,1.493-2.153,2.891-3.987,4.198c-1.834,1.291-4.081,1.935-6.739,1.935c-2.69,0-4.952-0.645-6.786-1.935
	c-1.803-1.275-3.109-2.675-3.917-4.198h0.023c-0.296-0.529-0.544-1.062-0.746-1.597c-0.202-0.537-0.358-1.1-0.466-1.691
	C3.128,189.945,3.055,189,3,187.703C2.945,186.406,2.945,179.001,3,177.711z M8.607,186.888c0.046,1.095,0.132,1.909,0.256,2.437
	c0.124,0.482,0.299,0.96,0.525,1.434c0.225,0.474,0.478,0.89,0.758,1.248c0.497,0.653,1.158,1.21,1.981,1.667
	c0.824,0.46,1.819,0.687,2.985,0.687c1.15,0,2.138-0.227,2.961-0.687c0.824-0.458,1.477-1.013,1.958-1.667
	c0.653-0.793,1.081-1.687,1.283-2.682c0.248-0.995,0.341-9.712,0.279-10.808c-0.062-1.095-0.156-1.901-0.279-2.413
	c-0.109-0.497-0.272-0.983-0.491-1.458c-0.218-0.474-0.474-0.897-0.769-1.271c-0.233-0.295-0.516-0.583-0.85-0.863
	c-0.335-0.28-0.712-0.524-1.131-0.734c-0.42-0.21-0.879-0.381-1.377-0.514c-0.498-0.132-1.026-0.198-1.584-0.198
	c-1.166,0-2.162,0.233-2.985,0.699c-0.824,0.467-1.484,1.003-1.981,1.609c-0.295,0.373-0.553,0.797-0.77,1.271
	c-0.218,0.474-0.389,0.961-0.513,1.458c-0.125,0.529-0.21,1.345-0.256,2.448C8.561,179.655,8.561,185.791,8.607,186.888z"/>
<path id="lineM6" d="M0.807,247.515c-0.187,0-0.28-0.094-0.28-0.279v-33.415c0-0.187,0.093-0.279,0.28-0.279h4.781
	c0.108,0,0.194,0.054,0.256,0.163l9.351,21.195c0,0,7.594-17.636,9.118-21.195c0.046-0.109,0.131-0.163,0.257-0.163h4.78
	c0.187,0,0.279,0.093,0.279,0.279v33.415c0,0.186-0.093,0.279-0.279,0.279h-5.06c-0.187,0-0.28-0.094-0.28-0.279v-19.728
	c-1.088,2.534-5.479,12.569-6.552,15.087c-0.062,0.093-0.148,0.14-0.257,0.14h-4.22c-0.109,0-0.194-0.046-0.256-0.14l-6.576-15.134
	v19.774c0,0.186-0.093,0.279-0.28,0.279H0.807z"/>
<path id="lineA7" d="M0.48,287.027c-0.108,0-0.187-0.038-0.232-0.115c-0.046-0.079-0.055-0.164-0.024-0.257l12.219-33.438
	c0.031-0.125,0.108-0.187,0.233-0.187h4.174c0.046,0,0.097,0.02,0.151,0.059s0.09,0.081,0.104,0.129l12.196,33.438
	c0.03,0.092,0.022,0.177-0.024,0.256c-0.047,0.077-0.117,0.115-0.21,0.115h-5.339c-0.125,0-0.202-0.062-0.233-0.187l-2.518-7.368
	H8.666c-0.436,1.26-0.868,2.491-1.294,3.696c-0.428,1.206-0.859,2.429-1.294,3.672c-0.016,0.048-0.05,0.091-0.104,0.129
	s-0.104,0.058-0.151,0.058H0.48V287.027z M19.299,274.459l-4.478-13.291l-4.478,13.291H19.299z"/>
<path id="lineY8" d="M12.723,327.503c-0.171,0-0.256-0.094-0.256-0.279v-13.665c-1.679-3.28-8.341-16.354-10.004-19.634
	c-0.046-0.108-0.046-0.201,0-0.279c0.046-0.078,0.132-0.117,0.256-0.117h5.316c0.046,0,0.094,0.02,0.14,0.058
	c0.046,0.04,0.085,0.074,0.118,0.104l6.855,14.318c1.15-2.409,5.681-11.908,6.833-14.318c0.03-0.031,0.07-0.065,0.116-0.104
	c0.046-0.039,0.094-0.058,0.141-0.058h5.339c0.124,0,0.21,0.039,0.256,0.117c0.047,0.078,0.047,0.17,0,0.279l-10.027,19.634v13.665
	c0,0.185-0.092,0.279-0.279,0.279H12.723z"/>
<path id="lineU9" d="M2.953,333.298c0-0.187,0.093-0.279,0.28-0.279h5.083c0.171,0,0.256,0.093,0.256,0.279v21.546
	c0,2.239,0.622,3.933,1.866,5.083c1.258,1.166,2.821,1.748,4.687,1.748c1.834,0,3.381-0.583,4.641-1.748
	c1.259-1.165,1.888-2.86,1.888-5.083v-21.546c0-0.187,0.094-0.279,0.28-0.279h5.061c0.186,0,0.279,0.093,0.279,0.279v22.105
	c0,3.576-1.188,6.452-3.568,8.628c-2.347,2.16-5.208,3.242-8.581,3.242c-3.39,0-6.265-1.082-8.628-3.242
	c-2.363-2.176-3.544-5.052-3.544-8.628V333.298z"/>
<path id="lineK10" d="M3.84,407.747c-0.172,0-0.257-0.094-0.257-0.279v-33.415c0-0.187,0.085-0.28,0.257-0.28h5.083c0.187,0,0.28,0.093,0.28,0.28
	v16.603c2.223-2.814,11.123-13.953,13.361-16.766c0.078-0.078,0.147-0.117,0.21-0.117h6.017c0.124,0,0.21,0.055,0.257,0.163
	c0.046,0.109,0.031,0.21-0.047,0.304l-10.586,13.035c1.974,3.374,3.928,6.716,5.864,10.027c1.935,3.311,3.898,6.653,5.889,10.028
	c0.046,0.108,0.05,0.206,0.012,0.291c-0.039,0.085-0.121,0.128-0.245,0.128h-6.017c-0.093,0-0.172-0.046-0.233-0.141l-8.954-15.997
	c-0.964,0.996-1.889,1.959-2.775,2.893c-0.886,0.932-1.803,1.897-2.751,2.892v10.074c0,0.186-0.094,0.279-0.28,0.279L3.84,407.747
	L3.84,407.747z"/>
<path id="lineO11" d="M3,426.538c0.055-1.291,0.128-2.23,0.222-2.822c0.108-0.59,0.265-1.158,0.466-1.702c0.202-0.543,0.451-1.08,0.746-1.609
	H4.41c0.808-1.508,2.114-2.906,3.917-4.197c1.819-1.306,4.081-1.958,6.786-1.958c2.673,0,4.92,0.653,6.739,1.958
	c1.833,1.322,3.156,2.721,3.964,4.197c0.575,1.057,0.964,2.16,1.167,3.31c0.108,0.593,0.189,1.532,0.246,2.822
	c0.054,1.291-0.028,11.597-0.246,12.825c-0.108,0.606-0.262,1.181-0.455,1.726c-0.194,0.544-0.423,1.065-0.688,1.562
	c-0.824,1.492-2.153,2.891-3.987,4.197c-1.834,1.29-4.081,1.936-6.739,1.936c-2.69,0-4.952-0.646-6.786-1.936
	c-1.803-1.274-3.109-2.674-3.917-4.197h0.023c-0.296-0.529-0.544-1.062-0.746-1.597c-0.202-0.537-0.358-1.1-0.466-1.691
	c-0.094-0.591-0.167-1.536-0.222-2.833C2.945,435.232,2.945,427.829,3,426.538z M8.607,435.714c0.046,1.095,0.132,1.909,0.256,2.436
	c0.124,0.483,0.299,0.961,0.525,1.435c0.225,0.474,0.478,0.89,0.758,1.249c0.497,0.653,1.158,1.209,1.981,1.666
	c0.824,0.459,1.819,0.688,2.985,0.688c1.15,0,2.138-0.229,2.961-0.688c0.824-0.458,1.477-1.012,1.958-1.666
	c0.653-0.794,1.081-1.687,1.283-2.683c0.248-0.994,0.341-9.711,0.279-10.807c-0.062-1.095-0.156-1.901-0.279-2.413
	c-0.109-0.497-0.272-0.982-0.491-1.458c-0.218-0.473-0.474-0.898-0.769-1.271c-0.233-0.295-0.516-0.583-0.85-0.863
	c-0.335-0.278-0.712-0.523-1.131-0.733c-0.42-0.211-0.879-0.381-1.377-0.514c-0.498-0.131-1.026-0.198-1.584-0.198
	c-1.166,0-2.162,0.233-2.985,0.7c-0.824,0.467-1.484,1.004-1.981,1.609c-0.295,0.374-0.553,0.797-0.77,1.271
	c-0.218,0.475-0.389,0.961-0.513,1.458c-0.125,0.529-0.21,1.345-0.256,2.448C8.561,428.481,8.561,434.617,8.607,435.714z"/>
</svg>
