<!DOCTYPE svg PUBLIC "-//W3C//DTD SVG 1.1//EN" "http://www.w3.org/Graphics/SVG/1.1/DTD/svg11.dtd">
<svg xmlns="http://www.w3.org/2000/svg" xmlns:xlink="http://www.w3.org/1999/xlink">
<path d="M2.833,12.457c0.055-1.308,0.13-2.261,0.225-2.86c0.11-0.599,0.268-1.174,0.473-1.726C3.734,7.32,3.986,6.776,4.286,6.24
	H4.262c0.819-1.528,2.143-2.946,3.971-4.254C10.077,0.662,12.37,0,15.112,0c2.71,0,4.987,0.662,6.831,1.986
	c1.859,1.339,3.199,2.758,4.019,4.254c0.583,1.072,0.977,2.191,1.182,3.357c0.11,0.599,0.192,1.552,0.249,2.86
	c0.055,1.308-0.028,11.756-0.249,13.001c-0.11,0.614-0.265,1.198-0.461,1.749c-0.197,0.552-0.429,1.08-0.697,1.584
	c-0.835,1.513-2.183,2.931-4.042,4.254c-1.859,1.308-4.137,1.962-6.831,1.962c-2.727,0-5.02-0.654-6.879-1.962
	c-1.828-1.292-3.152-2.71-3.971-4.254h0.024c-0.3-0.536-0.552-1.076-0.756-1.62c-0.205-0.543-0.363-1.114-0.473-1.713
	c-0.095-0.599-0.17-1.556-0.225-2.872C2.777,21.271,2.777,13.765,2.833,12.457z M8.517,21.759c0.047,1.111,0.134,1.935,0.26,2.47
	c0.126,0.489,0.303,0.974,0.532,1.454c0.228,0.48,0.484,0.902,0.768,1.265c0.504,0.662,1.174,1.225,2.009,1.69
	c0.835,0.465,1.844,0.697,3.026,0.697c1.166,0,2.167-0.232,3.002-0.697s1.497-1.028,1.985-1.69c0.662-0.804,1.096-1.71,1.301-2.719
	c0.251-1.008,0.346-9.845,0.283-10.956c-0.063-1.111-0.158-1.926-0.283-2.446c-0.111-0.504-0.276-0.997-0.497-1.478
	c-0.221-0.48-0.481-0.91-0.78-1.288C19.887,7.761,19.6,7.47,19.261,7.186s-0.722-0.532-1.146-0.745
	c-0.426-0.213-0.891-0.386-1.396-0.52c-0.504-0.134-1.04-0.201-1.606-0.201c-1.182,0-2.191,0.237-3.026,0.709
	c-0.835,0.473-1.505,1.016-2.009,1.631c-0.299,0.378-0.56,0.808-0.78,1.288c-0.221,0.481-0.394,0.973-0.52,1.478
	c-0.126,0.536-0.213,1.363-0.26,2.482C8.47,14.427,8.47,20.647,8.517,21.759z"/>
<path d="M3.684,76.008c-0.174,0-0.26-0.094-0.26-0.283V41.852c0-0.188,0.086-0.283,0.26-0.283h5.153
	c0.189,0,0.284,0.095,0.284,0.283v16.83c2.253-2.852,4.507-5.685,6.761-8.497c2.253-2.813,4.515-5.646,6.783-8.498
	c0.079-0.079,0.15-0.118,0.213-0.118h6.099c0.126,0,0.213,0.056,0.261,0.165c0.047,0.11,0.031,0.213-0.048,0.308L18.457,55.254
	c2.001,3.42,3.982,6.809,5.945,10.165c1.961,3.356,3.951,6.744,5.969,10.164c0.047,0.11,0.051,0.209,0.012,0.295
	c-0.04,0.087-0.123,0.13-0.249,0.13h-6.099c-0.094,0-0.174-0.047-0.236-0.142l-9.077-16.215c-0.977,1.008-1.915,1.985-2.813,2.931
	c-0.898,0.945-1.828,1.923-2.789,2.931v10.212c0,0.189-0.095,0.283-0.284,0.283H3.684z"/>
<path d="M0.279,117.033c-0.11,0-0.189-0.039-0.236-0.118s-0.055-0.165-0.024-0.26l12.386-33.896c0.031-0.126,0.11-0.189,0.236-0.189
	h4.231c0.047,0,0.098,0.02,0.153,0.059c0.056,0.04,0.091,0.083,0.106,0.13l12.363,33.896c0.031,0.095,0.023,0.181-0.024,0.26
	s-0.118,0.118-0.213,0.118h-5.413c-0.126,0-0.205-0.062-0.236-0.189l-2.553-7.469H8.576c-0.441,1.276-0.879,2.525-1.312,3.747
	c-0.434,1.222-0.871,2.463-1.312,3.723c-0.016,0.048-0.051,0.091-0.106,0.13c-0.055,0.04-0.106,0.06-0.153,0.06H0.279z
	 M19.355,104.292l-4.539-13.474l-4.539,13.474H19.355z"/>
<path d="M2.383,158.033c-0.189,0-0.284-0.095-0.284-0.283v-33.873c0-0.189,0.094-0.283,0.284-0.283h4.869
	c0.095,0,0.173,0.047,0.236,0.142l14.892,23.448v-23.307c0-0.189,0.094-0.283,0.283-0.283h5.153c0.188,0,0.284,0.094,0.284,0.283
	v33.873c0,0.188-0.096,0.283-0.284,0.283h-4.846c-0.095,0-0.174-0.047-0.236-0.142L7.796,134.443v23.307
	c0,0.188-0.087,0.283-0.26,0.283H2.383z"/>
<path d="M2.833,177.051c0.055-1.308,0.13-2.261,0.225-2.86c0.11-0.599,0.268-1.174,0.473-1.726c0.205-0.551,0.457-1.095,0.756-1.631
	H4.262c0.819-1.528,2.143-2.946,3.971-4.255c1.844-1.323,4.137-1.985,6.879-1.985c2.71,0,4.987,0.662,6.831,1.985
	c1.859,1.34,3.199,2.758,4.019,4.255c0.583,1.072,0.977,2.19,1.182,3.356c0.11,0.6,0.192,1.553,0.249,2.86
	c0.055,1.309-0.028,11.756-0.249,13.001c-0.11,0.614-0.265,1.197-0.461,1.749c-0.197,0.552-0.429,1.08-0.697,1.584
	c-0.835,1.513-2.183,2.931-4.042,4.255c-1.859,1.308-4.137,1.962-6.831,1.962c-2.727,0-5.02-0.654-6.879-1.962
	c-1.828-1.292-3.152-2.711-3.971-4.255h0.024c-0.3-0.536-0.552-1.076-0.756-1.619c-0.205-0.544-0.363-1.115-0.473-1.714
	c-0.095-0.599-0.17-1.557-0.225-2.872C2.777,185.864,2.777,178.359,2.833,177.051z M8.517,186.353c0.047,1.11,0.134,1.935,0.26,2.47
	c0.126,0.489,0.303,0.974,0.532,1.454c0.228,0.48,0.484,0.902,0.768,1.265c0.504,0.662,1.174,1.226,2.009,1.689
	c0.835,0.466,1.844,0.697,3.026,0.697c1.166,0,2.167-0.231,3.002-0.697c0.835-0.464,1.497-1.027,1.985-1.689
	c0.662-0.804,1.096-1.71,1.301-2.719c0.251-1.008,0.346-9.845,0.283-10.956c-0.063-1.11-0.158-1.927-0.283-2.446
	c-0.111-0.504-0.276-0.996-0.497-1.478c-0.221-0.48-0.481-0.91-0.78-1.288c-0.236-0.299-0.523-0.591-0.862-0.875
	c-0.339-0.283-0.722-0.531-1.146-0.744c-0.426-0.213-0.891-0.386-1.396-0.521c-0.504-0.133-1.04-0.2-1.606-0.2
	c-1.182,0-2.191,0.236-3.026,0.709c-0.835,0.473-1.505,1.017-2.009,1.631c-0.299,0.378-0.56,0.808-0.78,1.288
	c-0.221,0.481-0.394,0.974-0.52,1.478c-0.126,0.536-0.213,1.363-0.26,2.482C8.47,179.021,8.47,185.241,8.517,186.353z"/>
<path d="M0.61,247.811c-0.189,0-0.284-0.095-0.284-0.283v-33.873c0-0.189,0.095-0.283,0.284-0.283h4.846
	c0.11,0,0.197,0.055,0.26,0.165l9.479,21.486c0,0,7.698-17.878,9.243-21.486c0.047-0.11,0.133-0.165,0.26-0.165h4.846
	c0.189,0,0.283,0.094,0.283,0.283v33.873c0,0.188-0.094,0.283-0.283,0.283h-5.129c-0.189,0-0.284-0.095-0.284-0.283v-19.998
	c-1.103,2.569-5.555,12.741-6.642,15.294c-0.063,0.095-0.15,0.142-0.261,0.142h-4.278c-0.11,0-0.197-0.047-0.26-0.142l-6.666-15.341
	v20.045c0,0.188-0.095,0.283-0.284,0.283H0.61z"/>
<path d="M0.279,287.864c-0.11,0-0.189-0.039-0.236-0.117c-0.047-0.08-0.055-0.166-0.024-0.26l12.386-33.896
	c0.031-0.127,0.11-0.189,0.236-0.189h4.231c0.047,0,0.098,0.02,0.153,0.059s0.091,0.082,0.106,0.131l12.363,33.896
	c0.031,0.094,0.023,0.18-0.024,0.26c-0.048,0.078-0.118,0.117-0.213,0.117h-5.413c-0.126,0-0.205-0.062-0.236-0.189l-2.553-7.469
	H8.576c-0.441,1.277-0.879,2.525-1.312,3.746c-0.434,1.223-0.871,2.463-1.312,3.723c-0.016,0.049-0.051,0.092-0.106,0.131
	s-0.106,0.059-0.153,0.059H0.279z M19.355,275.124l-4.539-13.473l-4.539,13.473H19.355z"/>
<path d="M12.689,328.895c-0.173,0-0.26-0.095-0.26-0.283V314.76c-1.702-3.325-8.455-16.578-10.141-19.903
	c-0.047-0.11-0.047-0.204,0-0.283s0.134-0.118,0.26-0.118h5.389c0.047,0,0.095,0.02,0.142,0.059c0.047,0.04,0.086,0.075,0.119,0.106
	l6.949,14.514c1.166-2.442,5.759-12.071,6.926-14.514c0.031-0.031,0.071-0.066,0.118-0.106c0.047-0.039,0.095-0.059,0.143-0.059
	h5.412c0.126,0,0.213,0.039,0.26,0.118c0.048,0.079,0.048,0.173,0,0.283L17.842,314.76v13.852c0,0.188-0.094,0.283-0.283,0.283
	H12.689z"/>
<path d="M2.785,334.769c0-0.189,0.095-0.283,0.284-0.283h5.153c0.173,0,0.26,0.094,0.26,0.283v21.841c0,2.27,0.63,3.987,1.891,5.153
	c1.276,1.182,2.86,1.772,4.751,1.772c1.859,0,3.428-0.591,4.704-1.772s1.914-2.899,1.914-5.153v-21.841
	c0-0.189,0.096-0.283,0.284-0.283h5.13c0.188,0,0.283,0.094,0.283,0.283v22.408c0,3.625-1.205,6.54-3.617,8.746
	c-2.379,2.19-5.279,3.286-8.698,3.286c-3.436,0-6.351-1.096-8.746-3.286c-2.396-2.206-3.593-5.121-3.593-8.746V334.769z"/>
<path d="M3.684,410.238c-0.174,0-0.26-0.095-0.26-0.283v-33.873c0-0.189,0.086-0.283,0.26-0.283h5.153
	c0.189,0,0.284,0.094,0.284,0.283v16.83c2.253-2.853,11.275-14.144,13.544-16.995c0.079-0.079,0.15-0.118,0.213-0.118h6.099
	c0.126,0,0.213,0.055,0.261,0.165c0.047,0.11,0.031,0.213-0.048,0.308l-10.731,13.213c2.001,3.42,3.982,6.808,5.945,10.164
	c1.961,3.356,3.951,6.745,5.969,10.165c0.047,0.11,0.051,0.209,0.012,0.295c-0.04,0.087-0.123,0.13-0.249,0.13h-6.099
	c-0.094,0-0.174-0.047-0.236-0.142l-9.077-16.216c-0.977,1.009-1.915,1.986-2.813,2.932c-0.898,0.945-1.828,1.923-2.789,2.931
	v10.212c0,0.188-0.095,0.283-0.284,0.283H3.684z"/>
<path d="M2.833,429.286c0.055-1.308,0.13-2.261,0.225-2.86c0.11-0.599,0.268-1.174,0.473-1.726c0.205-0.551,0.457-1.095,0.756-1.631
	H4.262c0.819-1.528,2.143-2.946,3.971-4.255c1.844-1.323,4.137-1.985,6.879-1.985c2.71,0,4.987,0.662,6.831,1.985
	c1.859,1.34,3.199,2.758,4.019,4.255c0.583,1.072,0.977,2.19,1.182,3.356c0.11,0.6,0.192,1.553,0.249,2.86
	c0.055,1.309-0.028,11.756-0.249,13.001c-0.11,0.614-0.265,1.197-0.461,1.749c-0.197,0.552-0.429,1.08-0.697,1.584
	c-0.835,1.513-2.183,2.931-4.042,4.255c-1.859,1.308-4.137,1.962-6.831,1.962c-2.727,0-5.02-0.654-6.879-1.962
	c-1.828-1.292-3.152-2.711-3.971-4.255h0.024c-0.3-0.536-0.552-1.076-0.756-1.619c-0.205-0.544-0.363-1.115-0.473-1.714
	c-0.095-0.599-0.17-1.557-0.225-2.872C2.777,438.1,2.777,430.595,2.833,429.286z M8.517,438.588c0.047,1.11,0.134,1.935,0.26,2.47
	c0.126,0.489,0.303,0.974,0.532,1.454c0.228,0.48,0.484,0.902,0.768,1.265c0.504,0.662,1.174,1.226,2.009,1.689
	c0.835,0.466,1.844,0.697,3.026,0.697c1.166,0,2.167-0.231,3.002-0.697c0.835-0.464,1.497-1.027,1.985-1.689
	c0.662-0.804,1.096-1.71,1.301-2.719c0.251-1.008,0.346-9.845,0.283-10.956c-0.063-1.11-0.158-1.927-0.283-2.446
	c-0.111-0.504-0.276-0.996-0.497-1.478c-0.221-0.48-0.481-0.91-0.78-1.288c-0.236-0.299-0.523-0.591-0.862-0.875
	c-0.339-0.283-0.722-0.531-1.146-0.744c-0.426-0.213-0.891-0.386-1.396-0.521c-0.504-0.133-1.04-0.2-1.606-0.2
	c-1.182,0-2.191,0.236-3.026,0.709c-0.835,0.473-1.505,1.017-2.009,1.631c-0.299,0.378-0.56,0.808-0.78,1.288
	c-0.221,0.481-0.394,0.974-0.52,1.478c-0.126,0.536-0.213,1.363-0.26,2.482C8.47,431.256,8.47,437.477,8.517,438.588z"/>
</svg>
